<svg width="143" height="42" fill="none" xmlns="http://www.w3.org/2000/svg"><rect x=".535" y=".367" width="141.492" height="41.265" rx="3.306" fill="#000" stroke="#A6A6A6" stroke-width=".735"/><path d="M39.006 20.317c-.023-2.787 2.282-4.142 2.383-4.204-1.308-1.9-3.333-2.165-4.041-2.188-1.698-.18-3.349 1.02-4.213 1.02-.88 0-2.219-.997-3.652-.974-1.845.032-3.582 1.098-4.524 2.765-1.954 3.387-.498 8.37 1.378 11.111.943 1.34 2.033 2.842 3.473 2.788 1.402-.055 1.931-.896 3.621-.896 1.682 0 2.172.896 3.636.864 1.511-.023 2.453-1.347 3.364-2.701 1.083-1.534 1.519-3.053 1.534-3.13-.039-.016-2.928-1.122-2.959-4.454zm-2.763-8.191c.755-.942 1.269-2.227 1.129-3.535-1.09.046-2.46.755-3.247 1.682-.693.817-1.316 2.149-1.16 3.402 1.23.094 2.491-.623 3.278-1.55zM59.345 30.44h-1.962l-1.075-3.38h-3.737l-1.02 3.38h-1.908l3.698-11.5h2.29l3.714 11.5zm-3.356-4.797l-.973-2.998c-.102-.311-.296-1.027-.577-2.164H54.4c-.116.49-.295 1.214-.545 2.164l-.957 2.998h3.09zm12.863.553c0 1.41-.381 2.523-1.152 3.34-.685.732-1.542 1.09-2.554 1.09-1.098 0-1.885-.389-2.367-1.175v4.352h-1.846v-8.93c0-.888-.023-1.792-.07-2.726h1.62l.101 1.316h.031c.615-.989 1.55-1.487 2.796-1.487.98 0 1.79.389 2.445 1.16.67.779.996 1.79.996 3.06zm-1.876.062c0-.81-.18-1.471-.545-1.993-.397-.545-.935-.818-1.604-.818-.452 0-.865.156-1.238.452a2.085 2.085 0 00-.725 1.183 2.522 2.522 0 00-.085.561v1.386c0 .6.187 1.114.553 1.526.366.413.848.623 1.44.623.693 0 1.23-.272 1.62-.802.39-.537.584-1.238.584-2.118zm11.407-.062c0 1.41-.382 2.523-1.152 3.34-.686.732-1.542 1.09-2.554 1.09-1.098 0-1.885-.389-2.368-1.175v4.352h-1.845v-8.93c0-.888-.023-1.792-.07-2.726h1.62l.1 1.316h.032c.615-.989 1.55-1.487 2.795-1.487.981 0 1.791.389 2.445 1.16.67.779.997 1.79.997 3.06zm-1.877.062c0-.81-.179-1.471-.545-1.993-.397-.545-.934-.818-1.604-.818-.451 0-.864.156-1.238.452a2.127 2.127 0 00-.724 1.183 2.523 2.523 0 00-.086.561v1.386c0 .6.187 1.114.553 1.526.366.413.849.623 1.44.623.694 0 1.239-.272 1.62-.802.398-.537.584-1.238.584-2.118zm12.544.958c0 .982-.342 1.776-1.02 2.39-.747.67-1.79 1.005-3.13 1.005-1.238 0-2.227-.241-2.974-.716l.428-1.534a5.17 5.17 0 002.663.716c.693 0 1.238-.155 1.62-.467.389-.311.584-.732.584-1.253 0-.468-.164-.857-.475-1.176-.32-.32-.85-.615-1.589-.888-2.032-.755-3.037-1.853-3.037-3.294 0-.942.358-1.713 1.067-2.32.709-.6 1.65-.903 2.826-.903 1.044 0 1.916.179 2.609.545l-.467 1.495c-.654-.35-1.386-.53-2.212-.53-.646 0-1.16.164-1.526.475-.303.288-.46.631-.46 1.044 0 .451.18.833.53 1.121.304.273.865.568 1.675.888.988.397 1.712.864 2.18 1.401.475.538.708 1.207.708 2.001zm6.105-3.683h-2.032v4.026c0 1.02.358 1.534 1.075 1.534.327 0 .6-.031.817-.086l.055 1.402c-.366.132-.841.202-1.433.202-.732 0-1.293-.226-1.705-.67-.413-.443-.615-1.19-.615-2.234v-4.181H90.11v-1.379h1.207V20.63l1.806-.545v2.063h2.032v1.386zm9.142 2.694c0 1.277-.366 2.32-1.09 3.138-.763.841-1.775 1.262-3.037 1.262-1.215 0-2.188-.405-2.912-1.207-.724-.802-1.082-1.822-1.082-3.053 0-1.284.373-2.336 1.113-3.153.748-.818 1.752-1.23 3.013-1.23 1.215 0 2.196.404 2.936 1.214.709.779 1.059 1.791 1.059 3.03zm-1.908.04c0-.764-.163-1.41-.49-1.955-.39-.662-.942-.99-1.659-.99-.74 0-1.308.328-1.69.99-.334.545-.49 1.207-.49 1.993 0 .763.163 1.417.49 1.954.398.662.958.99 1.675.99.7 0 1.253-.335 1.658-1.005.335-.56.506-1.215.506-1.978zm7.903-2.5a3.42 3.42 0 00-.584-.047c-.646 0-1.152.241-1.503.732-.303.428-.459.98-.459 1.635v4.353h-1.845v-5.684c0-.958-.016-1.83-.055-2.609h1.604l.07 1.588h.055c.194-.545.498-.988.919-1.316a2.239 2.239 0 011.331-.443c.171 0 .327.015.459.03l.008 1.76zm8.238 2.133c0 .327-.023.608-.07.833h-5.528c.023.818.288 1.449.802 1.877.467.381 1.067.576 1.806.576.818 0 1.565-.132 2.235-.39l.288 1.278c-.786.342-1.713.514-2.78.514-1.284 0-2.297-.382-3.029-1.137-.732-.755-1.098-1.776-1.098-3.045 0-1.245.343-2.289 1.028-3.122.717-.888 1.682-1.332 2.897-1.332 1.191 0 2.102.444 2.71 1.332.49.716.739 1.58.739 2.616zm-1.759-.475c.015-.545-.109-1.02-.359-1.417-.319-.514-.809-.77-1.463-.77-.6 0-1.091.248-1.464.747-.304.397-.491.88-.545 1.432l3.831.008zM55.102 14.828h-.966l-.53-1.659H51.77l-.506 1.659h-.935l1.815-5.653h1.12l1.839 5.653zm-1.659-2.36l-.475-1.479c-.047-.148-.14-.506-.288-1.067h-.016c-.062.242-.14.592-.272 1.067l-.467 1.48h1.518zm6.205-1.72l-1.541 4.08h-.88l-1.495-4.08h.973l.693 2.157c.117.358.218.7.296 1.027h.023c.07-.296.172-.638.296-1.027l.685-2.157h.95zm3.286 4.08l-.07-.467h-.023c-.28.373-.678.56-1.191.56-.733 0-1.246-.514-1.246-1.199 0-1.004.872-1.526 2.382-1.526v-.078c0-.537-.288-.802-.848-.802-.405 0-.756.101-1.067.304l-.187-.592c.374-.234.849-.35 1.402-.35 1.066 0 1.604.56 1.604 1.69v1.502c0 .413.015.732.062.973l-.818-.015zm-.124-2.033c-1.005 0-1.51.242-1.51.826 0 .428.256.638.622.638.46 0 .888-.35.888-.833v-.63zm2.897-2.717a.53.53 0 01-.538-.545c0-.312.242-.537.553-.537.312 0 .56.225.553.537 0 .327-.234.545-.568.545zm-.436.67h.903v4.072h-.903v-4.072zm2.514-1.869h.904v5.94h-.904V8.88zm4.75 5.949l-.07-.467h-.023c-.28.373-.678.56-1.191.56-.732 0-1.246-.514-1.246-1.199 0-1.004.872-1.526 2.382-1.526v-.078c0-.537-.288-.802-.848-.802-.405 0-.756.101-1.067.304l-.187-.6c.374-.233.849-.35 1.401-.35 1.067 0 1.605.56 1.605 1.69v1.502c0 .413.015.732.054.974h-.81v-.008zm-.124-2.032c-1.005 0-1.51.24-1.51.825 0 .428.256.638.622.638.46 0 .888-.35.888-.833v-.63zm4.554 2.125c-.576 0-1.004-.241-1.284-.724h-.016l-.055.63h-.77c.023-.326.03-.692.03-1.097V8.879h.912v2.468h.015c.273-.452.701-.677 1.3-.677.982 0 1.667.84 1.667 2.063 0 1.261-.763 2.188-1.799 2.188zm-.187-3.543c-.521 0-.996.452-.996 1.082v.717c0 .56.428 1.02.98 1.02.678 0 1.083-.553 1.083-1.433 0-.825-.42-1.386-1.067-1.386zm3.326-2.499h.903v5.94h-.903V8.88zm5.832 4.127h-2.718c.016.77.53 1.207 1.285 1.207.405 0 .77-.07 1.098-.195l.14.63c-.382.172-.833.25-1.363.25-1.277 0-2.032-.802-2.032-2.056 0-1.245.77-2.188 1.931-2.188 1.036 0 1.698.771 1.698 1.94 0 .163-.008.303-.04.412zm-.826-.646c0-.631-.319-1.075-.895-1.075-.522 0-.927.452-.989 1.075h1.884zm6.315 2.561c-1.191 0-1.962-.887-1.962-2.094 0-1.262.786-2.157 2.032-2.157 1.176 0 1.962.848 1.962 2.087 0 1.269-.81 2.164-2.032 2.164zm.04-3.59c-.655 0-1.075.616-1.075 1.465 0 .84.428 1.448 1.066 1.448.639 0 1.067-.654 1.067-1.472-.008-.825-.42-1.44-1.059-1.44zm6.859 3.497h-.903v-2.344c0-.724-.28-1.082-.826-1.082-.537 0-.903.46-.903.996v2.422h-.903v-2.904c0-.359-.008-.748-.031-1.168h.794l.039.63h.023c.242-.436.74-.716 1.293-.716.856 0 1.417.654 1.417 1.72v2.446zm5.926-3.395h-.997v1.978c0 .506.179.755.53.755.155 0 .295-.016.404-.039l.024.685c-.179.07-.413.101-.701.101-.716 0-1.137-.397-1.137-1.425v-2.055h-.592v-.678h.592v-.747l.888-.273v1.013h.996v.685m4.79 3.395h-.904v-2.329c0-.732-.28-1.098-.825-1.098-.467 0-.903.32-.903.966v2.453h-.904V8.879h.904v2.445h.015c.288-.444.693-.662 1.223-.662.864 0 1.394.67 1.394 1.736v2.43zm4.625-1.822h-2.718c.016.77.53 1.207 1.285 1.207.405 0 .771-.07 1.098-.195l.14.63c-.381.172-.833.25-1.362.25-1.277 0-2.033-.802-2.033-2.056 0-1.245.771-2.188 1.931-2.188 1.036 0 1.698.771 1.698 1.94 0 .163-.008.303-.039.412zm-.825-.646c0-.631-.32-1.075-.896-1.075-.522 0-.934.452-.989 1.075h1.885z" fill="#fff"/></svg>