<svg height="32" width="32" xmlns="http://www.w3.org/2000/svg" viewBox="0 0 512.427 512.427"><path fill="#ffe100" d="M98.24 358.827l-76.8-51.2v-102.4l76.8-51.2 85.333 51.2v102.4z"/><path fill="#fdcc00" d="M183.573 503.893l-85.333-51.2v-93.866l85.333-51.2 85.334 51.2v93.866z"/><path fill="#ffa800" d="M183.573 307.627l-12.8 7.68 72.534 43.52v93.866l-72.534 43.52 12.8 7.68 85.334-51.2v-93.866z"/><path fill="#fdcc00" d="M268.907 358.827l-85.334-51.2v-102.4l85.334-51.2 85.333 51.2v102.4z"/><path fill="#fdcc00" d="M183.573 205.227l-85.333-51.2V60.16l85.333-51.2 85.334 51.2v93.867z"/><path fill="#ffe100" d="M354.24 205.227l-85.333-51.2V60.16l85.333-51.2 85.333 51.2v93.867z"/><path fill="#ffa800" d="M354.24 8.96l-12.8 7.68 72.533 43.52v93.867l-72.533 43.52 12.8 7.68 85.333-51.2V60.16z"/><path fill="#fff" d="M183.573 8.96l12.8 7.68-72.533 43.52v93.867l72.533 43.52-12.8 7.68-85.333-51.2V60.16zm0 298.667l12.8 7.68-72.533 43.52v93.866l72.533 43.52-12.8 7.68-85.333-51.2v-93.866z"/><path fill="#ffa800" d="M268.907 154.027l-12.8 7.68 72.533 43.52v102.4l-72.533 43.52 12.8 7.68 85.333-51.2v-102.4z"/><path fill="#fff" d="M106.773 154.027l12.8 7.68-72.533 43.52v102.4l72.533 43.52-12.8 7.68-85.333-51.2v-102.4z"/><path d="M471.147 441.6c-26.453 26.453-69.973 26.453-96.427 0-26.453-26.453-26.453-69.973 0-96.427l47.787-46.08 48.64 45.227c26.453 27.307 26.453 69.973 0 97.28" fill="#ffe100"/><path d="M471.147 344.32l-48.64-45.227-12.8 11.947 35.84 33.28c26.453 26.453 26.453 69.973 0 96.427-10.24 10.24-22.187 16.213-35.84 18.773 21.333 4.267 44.373-2.56 61.44-18.773 26.453-26.454 26.453-69.12 0-96.427" fill="#ffa800"/><path d="M183.573 213.76c-1.707 0-3.413 0-4.267-.853l-85.333-51.2c-2.56-1.707-4.267-4.267-4.267-7.68V60.16c0-3.413 1.707-5.973 4.267-7.68l85.333-51.2c2.56-1.707 5.973-1.707 8.533 0l85.333 51.2c2.56 1.707 4.267 4.267 4.267 7.68v93.867c0 3.413-1.707 5.973-4.267 7.68l-85.333 51.2c-.852.853-2.559.853-4.266.853zm-76.8-64.853l76.8 46.08 76.8-46.08V65.28l-76.8-46.08-76.8 46.08v83.627z"/><path d="M354.24 213.76c-1.707 0-3.413 0-4.267-.853l-85.333-51.2c-2.56-1.707-4.267-4.267-4.267-7.68V60.16c0-3.413 1.707-5.973 4.267-7.68l85.333-51.2c2.56-1.707 5.973-1.707 8.533 0l85.333 51.2c2.56 1.707 4.267 4.267 4.267 7.68v93.867c0 3.413-1.707 5.973-4.267 7.68l-85.333 51.2c-.853.853-2.559.853-4.266.853zm-76.8-64.853l76.8 46.08 76.8-46.08V65.28l-76.8-46.08-76.8 46.08v83.627zm-93.867 363.52c-1.707 0-3.413 0-4.267-.853l-85.333-51.2c-2.56-1.707-4.267-4.267-4.267-7.68v-93.867c0-3.413 1.707-5.973 4.267-7.68l85.333-51.2c2.56-1.707 5.973-1.707 8.533 0l85.333 51.2c2.56 1.707 4.267 4.267 4.267 7.68v93.867c0 3.413-1.707 5.973-4.267 7.68l-85.333 51.2c-.852.853-2.559.853-4.266.853zm-76.8-64.854l76.8 46.08 76.8-46.08v-84.48l-76.8-46.08-76.8 46.08v84.48z"/><path d="M98.24 367.36c-1.707 0-3.413-.853-5.12-1.707l-76.8-51.2c-1.707-1.707-3.413-4.267-3.413-6.827v-102.4c0-2.56 1.707-5.12 3.413-6.827l76.8-51.2c2.56-1.707 5.973-1.707 9.387 0l85.333 51.2c2.56 1.707 4.267 4.267 4.267 7.68v102.4c0 3.413-1.707 5.973-4.267 7.68l-85.333 51.2-4.267.001zm-68.267-64l68.267 46.08 76.8-46.08v-93.013l-76.8-46.08-68.267 46.08v93.013z"/><path d="M268.907 367.36c-1.707 0-3.413 0-4.267-.853l-85.333-51.2c-2.56-1.707-4.267-4.267-4.267-7.68v-102.4c0-3.413 1.707-5.973 4.267-7.68l85.333-51.2c2.56-1.707 5.973-1.707 8.533 0l85.333 51.2c2.56 1.707 4.267 4.267 4.267 7.68v102.4c0 3.413-1.707 5.973-4.267 7.68l-85.333 51.2c-.853.853-2.56.853-4.266.853zm-76.8-64.853l76.8 46.08 76.8-46.08v-92.16l-76.8-46.08-76.8 46.08v92.16zm230.4 167.253c-20.48 0-40.107-7.68-54.613-22.187-29.867-29.867-29.867-78.507 0-108.373l48.64-46.08c3.413-3.413 8.533-3.413 11.947 0l48.64 45.227c29.867 29.867 29.867 78.507 0 108.373-14.508 15.36-34.134 23.04-54.614 23.04zm0-158.72l-42.667 40.107c-23.04 23.04-23.04 61.44 0 84.48 11.093 11.093 26.453 17.067 42.667 17.067s30.72-5.973 42.667-17.067c23.04-23.04 23.04-61.44 0-84.48l-42.667-40.107z"/></svg>