<svg width="140" height="42" fill="none" xmlns="http://www.w3.org/2000/svg"><path d="M134.017 41.272H5.252c-2.833 0-5.15-2.322-5.15-5.16V5.16C.101 2.322 2.418 0 5.251 0h128.765c2.833 0 5.15 2.322 5.15 5.159v30.953c0 2.838-2.317 5.16-5.15 5.16" fill="#000"/><path d="M134.017 0H5.252C2.419 0 .102 2.322.102 5.159v30.953c0 2.838 2.317 5.16 5.15 5.16h128.765c2.833 0 5.15-2.322 5.15-5.16V5.16c0-2.837-2.317-5.159-5.15-5.159zm0 .825a4.335 4.335 0 014.326 4.334v30.953a4.335 4.335 0 01-4.326 4.334H5.252a4.335 4.335 0 01-4.327-4.334V5.16A4.335 4.335 0 015.252.825h128.765" fill="#A6A6A6"/><path d="M48.948 10.569c0 .864-.256 1.553-.768 2.066-.581.61-1.339.916-2.27.916-.893 0-1.651-.31-2.275-.929-.625-.62-.936-1.388-.936-2.304 0-.917.311-1.685.936-2.305.624-.62 1.382-.93 2.275-.93.442 0 .866.087 1.268.26.403.174.725.404.967.692l-.543.544c-.41-.49-.973-.734-1.692-.734-.651 0-1.214.23-1.688.687-.475.459-.713 1.054-.713 1.786s.238 1.327.712 1.785a2.348 2.348 0 001.689.688c.69 0 1.265-.23 1.726-.692.299-.3.472-.718.518-1.254h-2.245v-.743h2.995c.03.161.044.317.044.467" fill="#fff"/><path d="M48.948 10.57h-.103c-.001.844-.248 1.5-.738 1.992v.001l-.001.001c-.563.59-1.287.883-2.197.884-.868 0-1.595-.298-2.201-.899-.606-.602-.905-1.338-.907-2.231.002-.894.301-1.629.907-2.23.606-.603 1.333-.9 2.201-.9.43 0 .839.083 1.229.25.39.169.698.39.928.664l.079-.067-.073-.073-.543.545.072.073.08-.066c-.428-.514-1.03-.773-1.771-.772-.675 0-1.269.24-1.76.716-.495.478-.745 1.106-.744 1.86 0 .754.248 1.382.744 1.86a2.451 2.451 0 001.76.716c.713.001 1.32-.241 1.799-.722.32-.32.5-.765.548-1.318l.01-.112h-2.255v-.537h2.892v-.103l-.1.018c.027.157.04.305.04.45h.207c0-.158-.015-.319-.045-.487L48.99 10h-3.184v.95h2.347v-.104l-.103-.008c-.045.519-.21.91-.488 1.19-.443.441-.986.66-1.654.66a2.242 2.242 0 01-1.616-.658c-.454-.44-.68-1-.68-1.711 0-.71.226-1.272.68-1.711.458-.442.99-.658 1.617-.659.696.002 1.222.233 1.613.698l.072.086.623-.624.066-.067-.06-.072a2.647 2.647 0 00-1.005-.72 3.286 3.286 0 00-1.31-.268c-.915-.001-1.706.321-2.347.96-.643.636-.967 1.437-.966 2.377-.001.94.323 1.74.967 2.378.64.638 1.43.96 2.346.959.954 0 1.745-.317 2.346-.948l-.075-.072.073.073c.534-.534.798-1.255.798-2.139h-.103zm4.748-2.587H50.88v1.963h2.538v.744H50.88v1.963h2.815v.76h-3.608v-6.19h3.608v.76z" fill="#fff"/><path d="M53.696 7.983V7.88h-2.918v2.17h2.538v.536h-2.538v2.17h2.814v.554H50.19V7.326h3.402v.657h.104V7.88v.103h.102V7.12h-3.814v6.397h3.814v-.966h-2.814v-1.757h2.538v-.95h-2.538V8.086h2.814v-.103h-.102zm3.349 5.43h-.795v-5.43h-1.726v-.76h4.247v.76h-1.726v5.43" fill="#fff"/><path d="M57.045 13.413v-.103h-.692V7.88h-1.726v-.554h4.041v.554h-1.726v5.533h.103v-.103.103h.103V8.086h1.726V7.12h-4.453v.967h1.726v5.43h1v-.103h-.102zm4.8 0v-6.19h.793v6.19h-.794" fill="#fff"/><path d="M61.844 13.413h.103V7.326h.588v5.984h-.69v.103h.102-.103v.103h.897V7.12h-1v6.397h.103v-.103zm4.317 0h-.795v-5.43H63.64v-.76h4.247v.76h-1.726v5.43" fill="#fff"/><path d="M66.161 13.413v-.103h-.692V7.88h-1.726v-.554h4.041v.554h-1.726v5.533h.103v-.103.103h.103V8.086h1.726V7.12h-4.453v.967h1.726v5.43h1.001v-.103h-.103zm5.821-1.318a2.268 2.268 0 001.68.695c.661 0 1.221-.231 1.678-.695.458-.464.687-1.057.687-1.777s-.229-1.313-.687-1.777a2.266 2.266 0 00-1.679-.696c-.662 0-1.221.232-1.679.696-.457.464-.686 1.057-.686 1.777s.23 1.313.686 1.777zm3.945.518c-.607.626-1.363.938-2.266.938-.904 0-1.659-.312-2.265-.938-.608-.625-.91-1.39-.91-2.295s.302-1.67.91-2.296c.606-.626 1.361-.938 2.265-.938.898 0 1.652.314 2.263.943.61.628.914 1.392.914 2.29 0 .906-.304 1.67-.91 2.296z" fill="#fff"/><path d="M71.982 12.095l-.073.072a2.371 2.371 0 001.752.727 2.37 2.37 0 001.752-.726c.478-.483.718-1.108.717-1.85.001-.742-.24-1.367-.717-1.85a2.37 2.37 0 00-1.752-.726 2.372 2.372 0 00-1.752.726c-.477.483-.717 1.108-.716 1.85-.001.742.24 1.367.716 1.85l.073-.073.073-.073c-.437-.445-.655-1.005-.656-1.704 0-.699.22-1.26.656-1.705a2.164 2.164 0 011.606-.665c.638.002 1.166.22 1.606.665.438.446.656 1.006.657 1.705 0 .699-.22 1.26-.657 1.704a2.16 2.16 0 01-1.606.665 2.164 2.164 0 01-1.606-.665l-.073.073zm3.946.518l-.074-.071c-.59.606-1.313.905-2.193.906-.88 0-1.602-.3-2.192-.906l-.002-.004.002.004c-.589-.609-.88-1.342-.88-2.224 0-.882.291-1.615.88-2.224.59-.606 1.312-.906 2.192-.907.874.001 1.595.302 2.189.912.591.61.884 1.343.885 2.219-.001.882-.293 1.615-.881 2.224l.074.071.074.072c.624-.642.94-1.44.94-2.367 0-.923-.317-1.718-.944-2.363-.628-.648-1.414-.975-2.337-.974-.927-.001-1.715.325-2.34.97-.625.642-.94 1.44-.939 2.367 0 .928.314 1.725.94 2.367l.003.003-.003-.003c.624.645 1.412.97 2.34.97.926 0 1.715-.325 2.34-.97l-.074-.072zm2.025.8v-6.19h.966l3.004 4.816h.034l-.034-1.194V7.223h.795v6.19h-.829l-3.143-5.05h-.034l.034 1.194v3.856h-.793" fill="#fff"/><path d="M77.953 13.413h.103V7.326h.806l3.004 4.816h.197l-.037-1.298V7.326h.589v5.984h-.669l-3.143-5.05h-.197l.037 1.299v3.751h-.69v.103h.103-.103v.103h.896v-3.96l-.034-1.195-.103.003v.103h.034v-.103l-.087.055 3.173 5.097h.989V7.12h-1v3.728l.033 1.194.103-.002v-.104h-.034v.104l.087-.055-3.034-4.865H77.85v6.397h.103v-.103zm32.305 17.54h1.922V18.056h-1.922v12.899zm17.313-8.252l-2.203 5.593h-.066l-2.287-5.593h-2.071l3.43 7.816-1.956 4.348h2.006l5.285-12.164h-2.138zM116.67 29.49c-.63 0-1.508-.316-1.508-1.096 0-.995 1.094-1.377 2.038-1.377.846 0 1.242.183 1.756.432a2.331 2.331 0 01-2.286 2.04zm.232-7.07c-1.392 0-2.833.614-3.429 1.975l1.706.714c.364-.714 1.043-.946 1.756-.946.994 0 2.005.597 2.021 1.66v.132c-.348-.2-1.093-.498-2.004-.498-1.839 0-3.712 1.012-3.712 2.904 0 1.726 1.508 2.838 3.198 2.838 1.292 0 2.004-.58 2.452-1.261h.066v.995h1.855v-4.945c0-2.29-1.705-3.568-3.909-3.568zm-11.879 1.853h-2.734V19.85h2.734c1.437 0 2.253 1.192 2.253 2.21 0 1-.816 2.212-2.253 2.212zm-.05-6.217h-4.605v12.899h1.921v-4.887h2.684c2.131 0 4.225-1.545 4.225-4.006 0-2.461-2.094-4.006-4.225-4.006zM79.858 29.491c-1.328 0-2.44-1.114-2.44-2.643 0-1.546 1.112-2.676 2.44-2.676 1.311 0 2.34 1.13 2.34 2.676 0 1.53-1.029 2.643-2.34 2.643zm2.207-6.067H82c-.432-.515-1.262-.98-2.307-.98-2.19 0-4.199 1.927-4.199 4.404 0 2.46 2.008 4.372 4.199 4.372 1.045 0 1.875-.466 2.307-.997h.066v.631c0 1.68-.896 2.577-2.34 2.577-1.178 0-1.908-.848-2.207-1.563l-1.676.698c.481 1.164 1.759 2.593 3.883 2.593 2.257 0 4.166-1.33 4.166-4.57v-7.88h-1.826v.715zm3.153 7.53h1.925v-12.9h-1.925v12.9zm4.763-4.256c-.05-1.695 1.311-2.56 2.29-2.56.764 0 1.411.383 1.626.932l-3.916 1.628zm5.975-1.462c-.365-.981-1.478-2.793-3.751-2.793-2.257 0-4.132 1.779-4.132 4.388 0 2.46 1.858 4.389 4.348 4.389 2.008 0 3.17-1.23 3.651-1.945l-1.494-.998c-.497.732-1.178 1.214-2.157 1.214-.98 0-1.676-.449-2.125-1.33l5.858-2.427-.198-.498zM49.283 23.79v1.861h4.447c-.132 1.047-.481 1.812-1.012 2.344-.647.648-1.66 1.363-3.435 1.363-2.739 0-4.88-2.21-4.88-4.953 0-2.743 2.141-4.954 4.88-4.954 1.477 0 2.555.582 3.352 1.33l1.311-1.313c-1.112-1.064-2.589-1.879-4.663-1.879-3.751 0-6.904 3.059-6.904 6.816 0 3.756 3.153 6.815 6.904 6.815 2.025 0 3.551-.665 4.746-1.912 1.228-1.23 1.61-2.959 1.61-4.355 0-.432-.033-.83-.1-1.163h-6.256zm11.412 5.701c-1.328 0-2.473-1.097-2.473-2.66 0-1.579 1.145-2.66 2.473-2.66 1.328 0 2.473 1.081 2.473 2.66 0 1.563-1.145 2.66-2.473 2.66zm0-7.048c-2.423 0-4.398 1.845-4.398 4.388 0 2.527 1.975 4.389 4.398 4.389 2.423 0 4.398-1.862 4.398-4.389 0-2.543-1.975-4.388-4.398-4.388zm9.594 7.048c-1.327 0-2.473-1.097-2.473-2.66 0-1.579 1.146-2.66 2.473-2.66 1.328 0 2.473 1.081 2.473 2.66 0 1.563-1.145 2.66-2.473 2.66zm0-7.048c-2.423 0-4.398 1.845-4.398 4.388 0 2.527 1.975 4.389 4.398 4.389 2.423 0 4.398-1.862 4.398-4.389 0-2.543-1.975-4.388-4.398-4.388z" fill="#fff"/><path d="M10.926 7.853c-.345.313-.552.834-.552 1.526v-.157 22.824-.15c0 .639.177 1.132.477 1.45l.076.073c.243.22.554.336.91.336.35 0 .741-.111 1.155-.346l14.952-8.51 5.136-2.923c.653-.371 1.019-.85 1.08-1.338v-.002c-.061-.489-.427-.967-1.08-1.338l-5.136-2.923-14.952-8.51c-.415-.235-.807-.347-1.156-.347-.356 0-.667.117-.91.335z" fill="#00C1FF"/><path d="M10.928 33.42l-.077-.074c-.3-.318-.477-.811-.477-1.45v.15V9.228v.15c0-.691.207-1.212.552-1.525L23.69 20.637 10.928 33.419z" fill="url(#paint0_linear_44_1196)"/><path d="M27.944 24.9l-4.255-4.263 4.254-4.262 5.137 2.923c.652.37 1.018.85 1.08 1.338v.002c-.062.488-.428.967-1.08 1.338l-5.136 2.923" fill="url(#paint1_linear_44_1196)"/><path d="M11.838 33.755c-.356 0-.668-.117-.91-.336l12.761-12.783 4.256 4.263-14.953 8.51c-.414.234-.806.346-1.154.346z" fill="url(#paint2_linear_44_1196)"/><path d="M23.69 20.637L10.925 7.853c.243-.219.554-.335.91-.335.35 0 .741.112 1.156.347l14.952 8.51-4.255 4.262" fill="url(#paint3_linear_44_1196)"/><path d="M11.838 33.906c-.356 0-.668-.117-.91-.336a.02.02 0 00-.004-.002l-.066-.065-.007-.007.076-.077c.243.22.554.336.91.336.35 0 .741-.111 1.155-.346l14.952-8.51.096.096-.097.055-14.951 8.51c-.377.213-.736.325-1.06.344a1.967 1.967 0 01-.094.002" fill="url(#paint4_linear_44_1196)"/><path d="M10.85 33.496c-.299-.318-.476-.81-.476-1.45v-.15c0 .639.177 1.132.477 1.45l.076.073-.076.077z" fill="url(#paint5_linear_44_1196)"/><path d="M28.04 24.995l-.096-.096 5.136-2.923c.652-.371 1.018-.85 1.08-1.338 0 .179-.04.358-.12.532-.16.351-.48.683-.96.956l-5.04 2.869" fill="url(#paint6_linear_44_1196)"/><path d="M34.16 20.636c-.062-.489-.428-.967-1.08-1.338l-5.137-2.923.096-.096 5.04 2.868c.72.41 1.08.95 1.08 1.49z" fill="url(#paint7_linear_44_1196)"/><path d="M10.374 9.378v-.157c0-.057.002-.113.005-.167v-.011c.031-.55.202-.979.472-1.265l.075.075c-.345.313-.552.834-.552 1.525z" fill="url(#paint8_linear_44_1196)"/><path d="M27.944 16.375l-14.952-8.51c-.415-.235-.807-.346-1.157-.346-.356 0-.666.116-.909.334l-.075-.075a.99.99 0 01.073-.072l.003-.003c.24-.217.548-.333.9-.335h.008c.35 0 .742.111 1.156.347l15.049 8.564-.096.096z" fill="url(#paint9_linear_44_1196)"/><defs><linearGradient id="paint0_linear_44_1196" x1="18.53" y1="8.987" x2="7.532" y2="20.003" gradientUnits="userSpaceOnUse"><stop stop-color="#00A0FF"/><stop offset=".007" stop-color="#00A1FF"/><stop offset=".26" stop-color="#00BEFF"/><stop offset=".512" stop-color="#00D2FF"/><stop offset=".76" stop-color="#00DFFF"/><stop offset="1" stop-color="#00E3FF"/></linearGradient><linearGradient id="paint1_linear_44_1196" x1="34.954" y1="20.563" x2="10.028" y2="20.563" gradientUnits="userSpaceOnUse"><stop stop-color="#FFE000"/><stop offset=".409" stop-color="#FFBD00"/><stop offset=".775" stop-color="orange"/><stop offset="1" stop-color="#FF9C00"/></linearGradient><linearGradient id="paint2_linear_44_1196" x1="25.686" y1="24.689" x2="7.047" y2="43.221" gradientUnits="userSpaceOnUse"><stop stop-color="#FF3A44"/><stop offset="1" stop-color="#C31162"/></linearGradient><linearGradient id="paint3_linear_44_1196" x1="7.637" y1="5.958" x2="15.944" y2="14.23" gradientUnits="userSpaceOnUse"><stop stop-color="#32A071"/><stop offset=".069" stop-color="#2DA771"/><stop offset=".476" stop-color="#15CF74"/><stop offset=".801" stop-color="#06E775"/><stop offset="1" stop-color="#00F076"/></linearGradient><linearGradient id="paint4_linear_44_1196" x1="25.676" y1="27.646" x2="10.749" y2="42.597" gradientUnits="userSpaceOnUse"><stop stop-color="#CC2E36"/><stop offset="1" stop-color="#9C0E4E"/></linearGradient><linearGradient id="paint5_linear_44_1196" x1="12.074" y1="8.986" x2="2.385" y2="18.692" gradientUnits="userSpaceOnUse"><stop stop-color="#008DE0"/><stop offset=".007" stop-color="#008DE0"/><stop offset=".26" stop-color="#00A7E0"/><stop offset=".512" stop-color="#00B8E0"/><stop offset=".76" stop-color="#00C4E0"/><stop offset="1" stop-color="#00C7E0"/></linearGradient><linearGradient id="paint6_linear_44_1196" x1="34.954" y1="20.637" x2="10.028" y2="20.637" gradientUnits="userSpaceOnUse"><stop stop-color="#E0C500"/><stop offset=".409" stop-color="#E0A600"/><stop offset=".775" stop-color="#E09100"/><stop offset="1" stop-color="#E08900"/></linearGradient><linearGradient id="paint7_linear_44_1196" x1="34.954" y1="20.637" x2="10.028" y2="20.637" gradientUnits="userSpaceOnUse"><stop stop-color="#FFE840"/><stop offset=".409" stop-color="#FFCE40"/><stop offset=".775" stop-color="#FFBC40"/><stop offset="1" stop-color="#FFB540"/></linearGradient><linearGradient id="paint8_linear_44_1196" x1="12.064" y1="9.004" x2="2.731" y2="17.947" gradientUnits="userSpaceOnUse"><stop stop-color="#40B8FF"/><stop offset=".007" stop-color="#40B9FF"/><stop offset=".26" stop-color="#40CEFF"/><stop offset=".512" stop-color="#40DDFF"/><stop offset=".76" stop-color="#40E7FF"/><stop offset="1" stop-color="#40EAFF"/></linearGradient><linearGradient id="paint9_linear_44_1196" x1="7.618" y1="8.662" x2="14.283" y2="15.338" gradientUnits="userSpaceOnUse"><stop stop-color="#65B895"/><stop offset=".069" stop-color="#62BD95"/><stop offset=".476" stop-color="#50DB97"/><stop offset=".801" stop-color="#44ED98"/><stop offset="1" stop-color="#40F498"/></linearGradient></defs></svg>