<svg width="66" height="29" fill="none" xmlns="http://www.w3.org/2000/svg"><path fill-rule="evenodd" clip-rule="evenodd" d="M58.331 26.686c-.73.847-2.215.72-2.459-.52-.116-.614.053-1.355.319-1.874.593-1.134 1.664-2.066 2.883-2.373 0 .7 0 1.62-.022 2.33-.021.784-.19 1.812-.72 2.437zM46.535 9.938c.678.042 1.219.784 1.039 2.044-.223 1.494-1.463 3.094-2.873 3.454-.222-.53-.328-1.61-.201-2.67.233-1.938 1.23-2.87 2.035-2.828zm-26.423 7.225c-1.05-1.399-1.007-3.094-.678-4.704 1.027 2.31 3.773 2.712 5.468 2.373-.222 1.78-1.155 3.337-2.766 3.337-.9.01-1.558-.381-2.024-1.006zm3.71-6.526c.517.528.865 1.297 1.025 2.15l.002.011-.002-.01c-1.186.169-2.33-.054-3.167-.7-.604-.476-.763-1.228-.508-1.684.37-.657 1.483-.943 2.65.233zM7.668 1.951c.73-.858 2.215-.72 2.448.519.116.603-.043 1.345-.307 1.864C9.216 5.467 8.145 6.4 6.926 6.717c0-.71-.01-1.62.022-2.33.02-.784.19-1.822.72-2.436zm54.107 18.368c.01-3.686 0-7.373 0-11.059 0-.911-2.618-.964-2.702-.042 0 .37 0 .752-.011 1.122-.042 2.024-1.007 5.805-2.607 7.183-.435.37-.827.392-1.103.19-.244-.18-.307-.635-.307-1.027v-.509c0-2.277.01-4.629 0-6.906 0-.912-2.618-.975-2.703-.053 0 2.118 0 4.173.01 6.27-1.727 2.755-5.723 4.047-7.376.785 1.028.392 2.12.2 2.862-.191 1.282-.678 2.257-1.8 2.448-3.58.18-5.212-6.71-5.922-8.246-.615a8.88 8.88 0 00-.36 2.744c.031.879.212 1.695.519 2.415-.562.55-1.208.932-1.855.911-.848-.032-.763-1.08-.763-1.684V12.3c0-.477 0-.953-.043-1.42-.137-1.387-1.197-2.489-2.68-2.584-2.11-.032-3.594 1.928-4.325 4.078-.01-1.197 0-1.907 0-3.114-.01-.9-2.438-.964-2.714-.01-.35 1.207-1.494 2.15-2.565 2.711-.328-.794-.741-1.525-1.314-2.15-2.353-2.553-5.755-2.087-7.748.02-1.58 1.675-2.056 4.694-1.208 6.812-.625.742-1.484 1.346-2.247 1.314-.382-.021-.594-.244-.689-.593-.095-.34-.074-.742-.074-1.091 0-1.325-.01-2.649 0-3.973 0-.477 0-.953-.042-1.42-.138-1.387-.954-2.5-2.502-2.595-2.66-.116-3.73 2.458-4.515 4.577V8.338a14.269 14.269 0 001.643-.392c5.861-1.684 4.727-7.839.36-7.944-2.946-.064-4.695 1.874-4.674 4.82v1.906c-1.06-.159-1.855-1.536-2.3-2.426l-.19-.413a.278.278 0 00-.34-.17c-.117.032-.233.075-.35.117-.424.19-.774.52-.943.954-.307.773 0 1.6.54 2.182.89.932 2.311 1.271 3.562 1.335-.011 3.675 0 7.34 0 11.016.042.52.752.657 1.166.668.434.01 1.377-.127 1.388-.72l.032-.456c.18-1.631 1.749-8.157 3.73-8.167.488 0 .732.318.732.794v5.816c0 1.8 1.018 3.008 2.862 3.008 1.43.01 2.724-1.027 3.497-2.32.106.138.191.286.308.413a5.518 5.518 0 004.186 1.94c3.7-.054 5.596-3.232 5.459-6.357.858-.476 1.632-1.091 2.226-1.854v7.236c.042.519.784.656 1.198.667.434.01 1.377-.127 1.377-.72l.043-.456.127-1.208c.19-1.684 1.452-6.949 3.604-6.96.476 0 .72.319.72.795v5.816c0 1.8 1.018 3.008 2.873 3.008 1.282.01 2.448-.826 3.232-1.928 1.039 1.282 2.629 2.034 4.536 2.034 2.237 0 3.859-.985 4.94-2.574.243 1.367.975 2.447 2.766 2.468 1.855.01 3.265-2.574 3.848-4.131v4.163a14.52 14.52 0 00-1.633.392c-5.86 1.674-4.738 7.839-.37 7.934 2.956.075 4.695-1.864 4.684-4.809 0-.498-.01-1.43 0-1.917 1.05.159 1.855 1.546 2.29 2.436.074.138.137.276.19.413a.3.3 0 00.35.17 1.9 1.9 0 00.34-.127c.434-.191.784-.509.953-.954.308-.773 0-1.589-.551-2.171-.88-.943-2.31-1.272-3.55-1.346z" fill="#000"/></svg>